<svg width="128" height="128" viewBox="0 0 128 128" fill="none" xmlns="http://www.w3.org/2000/svg">
<path d="M127.447 50.0852C126.787 36.1162 88.2155 32.3164 60.8141 42.7457C33.4127 53.175 20.7121 74.2036 22.8222 91.9124C25.6323 115.461 53.3337 126.2 81.1351 106.991C102.266 92.3923 127.978 61.2345 127.447 50.0752V50.0852Z" fill="#5DD3F6"/>
<path d="M95.146 28.4167C82.3354 28.4167 67.7446 30.6966 55.194 35.4763C24.9125 46.9955 8.82167 69.474 12.3518 87.5528C13.1819 91.8025 14.732 95.6322 16.8821 98.952C7.10158 111.941 0.671256 123.04 0.401242 123.51C-0.428799 124.94 0.0712257 126.78 1.5113 127.6C1.98132 127.87 2.50135 128 3.01137 128C4.05143 128 5.07148 127.46 5.62151 126.49C5.75151 126.27 11.7618 115.931 20.7923 103.782C26.5026 109.471 34.553 112.751 43.9834 112.751C53.4139 112.751 64.4745 109.401 75.845 101.802C99.3562 86.0928 128.298 53.0551 127.998 41.4659C127.778 32.9664 113.237 28.4167 95.136 28.4167H95.146ZM106.307 66.1642C95.8561 78.2034 83.2154 89.6626 72.4949 96.8221C62.7744 103.322 52.9139 106.751 43.9834 106.751C35.913 106.751 29.1427 103.912 24.4825 98.932C34.0129 86.7528 46.0635 73.8837 57.9742 68.0441C59.4642 67.3141 60.0743 65.5142 59.3442 64.0343C58.6042 62.5544 56.8041 61.9345 55.314 62.6744C44.7635 67.8541 33.1829 78.3334 20.8623 93.8223C19.6822 91.5925 18.7922 89.1227 18.2621 86.4128C16.8421 79.1333 19.5222 70.7339 25.8225 62.7644C32.8929 53.825 44.0835 46.1156 57.3441 41.0759C68.4647 36.8462 82.2454 34.4163 95.146 34.4163C112.897 34.4163 121.917 39.036 121.987 41.6259C122.057 44.1557 117.927 52.7951 106.307 66.1742V66.1642Z" fill="#19124F"/>
<path d="M111.047 33.2064C111.047 48.0353 98.9761 52.1251 84.0754 52.1251C69.1746 52.1251 57.104 48.0253 57.104 33.2064C57.104 18.3874 69.1746 6.36816 84.0754 6.36816C98.9761 6.36816 111.047 18.3874 111.047 33.2064Z" fill="#FE5B71"/>
<path d="M67.1148 17.7875L71.275 5.06831C71.785 3.49841 70.925 1.80853 69.3449 1.28856C67.7648 0.778599 66.0647 1.63854 65.5547 3.20843L61.7045 14.9876C60.5344 14.6777 59.3444 14.5377 58.1543 14.5277L60.9845 3.7584C61.4045 2.15851 60.4444 0.518616 58.8344 0.0986446C57.2243 -0.321327 55.5842 0.638608 55.1642 2.2385L51.524 16.1176C49.7039 17.0575 48.0538 18.3874 46.7437 20.1273C42.0135 26.3569 43.2536 35.2263 49.5239 39.936C55.7842 44.6456 64.6947 43.4057 69.4249 37.1761C74.0251 31.1165 72.9651 22.5771 67.1448 17.7775L67.1148 17.7875Z" fill="#19124F"/>
<path d="M86.2252 24.257C90.152 24.257 93.3352 21.0918 93.3352 17.1874C93.3352 13.2831 90.152 10.1179 86.2252 10.1179C82.2985 10.1179 79.1152 13.2831 79.1152 17.1874C79.1152 21.0918 82.2985 24.257 86.2252 24.257Z" fill="#19124F"/>
<path d="M95.7155 42.2658C99.6422 42.2658 102.825 39.1006 102.825 35.1962C102.825 31.2918 99.6422 28.1267 95.7155 28.1267C91.7887 28.1267 88.6055 31.2918 88.6055 35.1962C88.6055 39.1006 91.7887 42.2658 95.7155 42.2658Z" fill="#19124F"/>
</svg>
