<svg width="128" height="128" viewBox="0 0 128 128" fill="none" xmlns="http://www.w3.org/2000/svg">
<path d="M37.2686 87.1585C36.4286 87.1585 35.5786 87.1182 34.7086 87.0278C25.0986 86.0223 17.5986 79.7985 14.6386 70.3774C12.8786 64.7971 14.7786 61.2077 16.6686 59.1766C22.3886 53.0534 35.0786 53.4254 41.7386 55.0945C43.3486 55.4967 44.3286 57.1356 43.9186 58.7544C43.5186 60.3731 41.8886 61.3585 40.2786 60.9563C33.7586 59.3174 24.2386 59.8905 21.0386 63.3191C20.2886 64.1235 19.3986 65.5412 20.3586 68.5676C23.5586 78.7428 31.8986 80.6733 35.3286 81.0352C39.9886 81.5279 43.5186 80.1102 44.1786 78.9439C44.9886 77.496 46.8286 76.9833 48.2686 77.7977C49.7086 78.6221 50.2186 80.4521 49.4086 81.91C47.5686 85.1878 42.8586 87.1685 37.2686 87.1685V87.1585Z" fill="#19124F"/>
<path d="M33.3188 98.0174C28.3088 98.0174 22.8188 96.5393 18.5588 93.6436C14.6588 90.9892 10.2088 86.0122 10.5088 80.7336C10.6388 78.4613 11.6988 75.274 16.0388 72.9916C17.5088 72.2174 19.3188 72.7905 20.0888 74.2685C20.8588 75.7465 20.2888 77.5664 18.8188 78.3406C16.5888 79.5069 16.5188 80.6934 16.4988 81.0754C16.3788 83.207 18.7088 86.4546 21.9188 88.6465C28.3888 93.0504 37.6388 92.6583 40.2488 90.0642C40.6388 89.6721 41.5688 88.7571 39.8188 86.0826C38.9088 84.6951 39.2888 82.8149 40.6788 81.8999C42.0588 80.985 43.9288 81.367 44.8388 82.7646C47.6288 87.0277 47.4988 91.3612 44.4788 94.3575C42.0088 96.8108 37.8688 98.0174 33.3288 98.0174H33.3188Z" fill="#19124F"/>
<path d="M30.5987 107.79C27.9787 107.79 25.5287 107.388 23.9687 106.875C22.2687 106.312 13.6587 103.185 10.9987 96.4891C9.79866 93.4627 10.0587 90.205 11.7487 87.0579C12.5387 85.5899 14.3587 85.047 15.8187 85.8413C17.2787 86.6356 17.8187 88.4655 17.0287 89.9335C16.1787 91.5221 16.0287 92.8895 16.5687 94.257C17.7687 97.2934 22.2187 99.9579 25.8287 101.144C28.7387 102.1 35.0587 102.019 36.6387 100.229C37.0587 99.7468 36.9687 98.8418 36.3687 97.5348C35.6787 96.0266 36.3287 94.2268 37.8387 93.533C39.3487 92.8292 41.1287 93.4928 41.8187 95.0111C44.0387 99.8473 42.3387 102.874 41.1187 104.241C38.7487 106.916 34.4787 107.79 30.5887 107.79H30.5987Z" fill="#19124F"/>
<path d="M43.2685 74.4997C42.8285 74.4997 42.3785 74.3992 41.9585 74.1981C41.9085 74.1679 35.5685 71.1817 31.3385 73.7858C29.9285 74.6606 28.0785 74.2081 27.2085 72.7904C26.3385 71.3727 26.7885 69.5126 28.1985 68.6379C35.2385 64.2943 44.1985 68.5776 44.5785 68.7686C46.0685 69.4925 46.6885 71.3024 45.9685 72.8005C45.4485 73.8763 44.3785 74.4997 43.2685 74.4997Z" fill="#19124F"/>
<path d="M72.0787 86.7663C71.9987 86.7663 71.9287 86.7663 71.8487 86.7663C70.1987 86.6456 68.9587 85.1978 69.0787 83.5287C69.4887 78.0691 67.1487 69.3317 59.1987 62.6856C54.7587 58.9755 50.2187 50.8514 50.7387 41.8023C50.9887 37.4085 50.5487 34.734 49.5087 34.2011C47.4187 33.8693 45.0887 34.4424 43.2387 35.7394C41.6787 36.8354 40.6887 38.3034 40.4387 39.8518C39.0287 48.6897 44.5687 55.0643 46.6487 57.4573C47.3987 58.332 47.8187 58.8046 48.0387 59.5989C48.1687 60.0514 48.1887 60.5239 48.0987 60.9864C47.2187 65.6216 46.4787 72.2676 50.1887 76.4805C51.2887 77.7273 51.1787 79.6276 49.9387 80.7436C48.6987 81.8496 46.7987 81.739 45.7087 80.4923C40.6487 74.7612 40.9987 67.0292 41.9587 61.2478C39.4587 58.3622 32.7087 50.2683 34.5187 38.9167C35.0287 35.7394 36.8987 32.8638 39.7987 30.8127C43.0187 28.5404 47.1587 27.6053 50.8687 28.3292C50.9887 28.3494 51.1087 28.3795 51.2287 28.4197C57.3987 30.4306 56.9287 38.6452 56.7287 42.1543C56.3487 48.8104 59.6187 55.195 63.0387 58.0606C72.7287 66.1645 75.6087 76.7721 75.0687 83.9912C74.9487 85.5799 73.6387 86.7764 72.0787 86.7764V86.7663Z" fill="#19124F"/>
<path d="M50.9888 109.942C45.7788 109.942 39.6788 108.444 35.8388 105.97C34.4488 105.066 34.0388 103.205 34.9388 101.798C35.8388 100.4 37.6888 99.988 39.0888 100.893C42.9388 103.376 50.6588 104.663 54.6688 103.487C56.2588 103.014 57.9288 103.939 58.3888 105.538C58.8588 107.137 57.9388 108.816 56.3488 109.278C54.8088 109.731 52.9588 109.952 50.9888 109.952V109.942Z" fill="#19124F"/>
<path d="M125.009 103.437L89.3586 77.9082L62.0886 109.701L79.0486 126.542H122.929" fill="#5DD3F6"/>
<path d="M68.1586 128C67.5086 128 66.8486 127.789 66.2986 127.347L49.4286 113.944C48.7986 113.441 48.3986 112.707 48.3086 111.903C48.2186 111.098 48.4586 110.294 48.9586 109.671L74.5086 78.0591C75.4886 76.8425 77.2286 76.5911 78.5186 77.4659L126.679 110.244C128.049 111.179 128.409 113.049 127.479 114.436C126.549 115.814 124.689 116.176 123.309 115.241L77.4186 84.0114L55.5286 111.098L70.0086 122.601C71.3086 123.636 71.5286 125.527 70.4986 126.834C69.9086 127.588 69.0286 127.98 68.1386 127.98L68.1586 128Z" fill="#19124F"/>
<path d="M52.9688 18.9685C54.3688 13.8306 55.7588 8.29052 54.1988 3.29341C53.4088 0.749609 50.0388 0.035736 49.2988 2.85101C47.5688 9.35631 48.1588 14.1021 47.9388 19.7024C47.8288 22.5177 52.2088 21.7837 52.9688 18.9685Z" fill="#FE5B71"/>
<path d="M32.8686 17.0279C31.8886 12.7748 29.0786 7.30516 24.9686 1.64445C23.4686 -0.426793 22.1986 -0.0949925 21.5686 0.277026C20.5486 0.900408 19.9886 2.45886 20.2486 3.98716C21.4386 11.0253 25.1986 16.2537 29.0986 20.8486C29.4686 21.281 29.8986 21.5223 30.3586 21.5625C30.7386 21.5927 31.1386 21.4821 31.5186 21.2207C32.6486 20.4565 33.2486 18.6065 32.8786 17.0179L32.8686 17.0279Z" fill="#FE5B71"/>
<path d="M19.3087 30.6618C13.6287 24.4682 9.46872 22.1858 3.52872 20.2755C0.818715 19.4007 -1.11128 22.578 0.718715 24.7296C5.60872 30.4909 10.7787 34.5027 16.4987 35.116C19.6687 35.4579 21.2187 32.7431 19.3087 30.6618Z" fill="#FE5B71"/>
</svg>
