<svg width="128" height="128" viewBox="0 0 128 128" fill="none" xmlns="http://www.w3.org/2000/svg">
<path d="M117 21.36C81.8299 20.52 68.2299 7.29004 68.2299 7.29004C68.2299 7.29004 55.4199 25.01 20.5499 25.84C20.5499 25.84 16.1299 83.44 25.0399 101.19C31.9199 114.9 68.2299 127.99 68.2299 127.99C68.2299 127.99 104.57 114.19 111.41 100.57C120.32 82.81 117 21.35 117 21.35V21.36ZM65.0499 98.38C52.6999 98.38 43.5499 88.28 43.0099 76.34C42.4799 64.44 53.5199 54.3 65.0499 54.3C77.3999 54.3 86.5499 64.4 87.0899 76.34C87.6199 88.24 76.5799 98.38 65.0499 98.38Z" fill="#5DD3F6"/>
<path d="M61.7801 126.7C61.4401 126.7 61.0901 126.64 60.7601 126.52C59.2301 125.97 23.2401 112.85 15.9101 98.24C6.74006 79.95 10.9301 23.7 11.1101 21.31C11.2301 19.78 12.4901 18.58 14.0301 18.54C46.7801 17.76 59.2401 1.39 59.3601 1.22C59.9301 0.45 60.8301 0 61.7801 0C62.7301 0 63.6301 0.45 64.2001 1.22C64.2201 1.25 67.2401 5.23 74.2801 9.25C80.8101 12.98 92.2201 17.52 109.53 17.93C111.07 17.97 112.33 19.16 112.45 20.7C112.63 23.09 116.83 79.34 107.65 97.63C100.37 112.13 64.3801 125.93 62.8601 126.51C62.5201 126.64 62.1601 126.71 61.8001 126.71L61.7801 126.7ZM16.9101 24.44C16.1901 35.88 13.9001 80.85 21.2701 95.55C26.2901 105.56 51.2501 116.58 61.7501 120.49C72.2701 116.37 97.2801 104.89 102.28 94.93C105.71 88.09 107.54 73.23 107.55 51.98C107.55 39.81 106.96 28.73 106.64 23.82C80.4201 22.55 66.9001 12.42 61.7901 7.46C56.6801 12.57 43.0501 23.14 16.9001 24.44H16.9101Z" fill="#19124F"/>
<path d="M61.6 85.17C58.45 85.17 55.28 84.35 52.43 82.72C45.95 79.01 42.23 71.89 42.23 63.18C42.23 62.28 42.23 61.34 42.22 60.39C42.15 50.79 42.06 38.84 48.68 32.17C51.84 28.99 56.17 27.38 61.54 27.38C79.74 27.38 79.94 47.95 80.07 61.56L80.09 63.15C80.19 71.99 76.72 79.14 70.56 82.76C67.82 84.37 64.72 85.17 61.6 85.17ZM61.54 33.37C57.77 33.37 54.95 34.36 52.93 36.39C48.07 41.28 48.15 51.85 48.21 60.34C48.21 61.31 48.22 62.26 48.22 63.18C48.22 69.68 50.84 74.91 55.4 77.52C59.22 79.71 63.86 79.73 67.51 77.59C71.83 75.05 74.16 69.95 74.08 63.21L74.06 61.61C73.91 46.16 72.86 33.36 61.52 33.36L61.54 33.37Z" fill="#19124F"/>
<path d="M61.42 96.32C73.6642 96.32 83.59 86.3941 83.59 74.15C83.59 61.9058 73.6642 51.98 61.42 51.98C49.1758 51.98 39.25 61.9058 39.25 74.15C39.25 86.3941 49.1758 96.32 61.42 96.32Z" fill="#FE5B71"/>
</svg>
