<svg width="128" height="128" viewBox="0 0 128 128" fill="none" xmlns="http://www.w3.org/2000/svg">
<path d="M61.2302 128C89.6784 128 112.74 104.182 112.74 74.8005C112.74 45.4192 89.6784 21.601 61.2302 21.601C32.782 21.601 9.72021 45.4192 9.72021 74.8005C9.72021 104.182 32.782 128 61.2302 128Z" fill="#5DD3F6"/>
<path d="M54.78 15.4476C24.57 15.4476 0 39.9612 0 70.0879C0 100.215 24.57 124.728 54.78 124.728C84.99 124.728 109.55 100.215 109.55 70.0879C109.55 39.9612 84.98 15.4476 54.78 15.4476ZM102.74 78.4826C98.29 82.0546 92.67 83.2252 88.78 81.3142C85.58 79.7433 84.04 76.1813 84.42 71.3086C84.78 66.7261 82.86 62.2736 81 57.9712C77.53 49.9368 76.62 46.3147 81.67 42.8328C84.48 40.8917 85.1 41.362 86.73 42.6327C89.46 44.7539 92.11 45.6344 95.44 43.4031C100.51 51.0674 103.48 60.2425 103.48 70.0979C103.48 72.9595 103.22 75.7611 102.74 78.4826ZM6.07 70.0879C6.07 59.6321 9.41 49.9368 15.07 42.0024L15.25 41.9623C18.63 41.272 24.28 40.1113 26.67 42.4226C28.27 43.9734 28.68 47.3653 27.83 52.218C26.44 60.1624 28.69 65.0651 30.83 67.7666C33.72 71.4487 37.71 72.9595 40.48 73.1496C42.15 73.2597 43.83 73.2997 45.45 73.3297C53.97 73.5098 58.9 73.9401 61.11 80.6938C61.96 83.3053 62 85.2864 61.23 86.7772C59.39 90.3091 52.64 92.3603 44.1 94.9617L43.23 95.2219C39.82 96.2624 36.76 98.0434 33.8 99.7644C30.01 101.966 26.09 104.227 21.14 105.167C11.86 96.3125 6.07 83.8656 6.07 70.0779V70.0879ZM54.78 118.675C44.41 118.675 34.8 115.413 26.9 109.89C30.71 108.559 33.93 106.708 36.87 104.997C39.65 103.376 42.27 101.856 45.01 101.015L45.88 100.755C55.78 97.7433 63.6 95.3619 66.62 89.5787C68.18 86.5771 68.27 83.0551 66.89 78.8228C63.24 67.6566 53.45 67.4565 45.59 67.2864C44.04 67.2564 42.43 67.2163 40.9 67.1163C39.77 67.0362 37.39 66.3058 35.61 64.0446C33.62 61.5132 33.01 57.8812 33.82 53.2686C35.06 46.1547 34.11 41.1819 30.91 38.0902C28.23 35.4988 24.6 34.8984 21.13 35.0285C29.88 26.6639 41.74 21.501 54.79 21.501C69.59 21.501 82.86 28.1347 91.8 38.5604C91.69 38.6205 91.63 38.6405 91.64 38.6405C91.42 38.5805 90.85 38.1302 90.47 37.84C88.46 36.2792 84.71 33.3776 78.23 37.84C68.59 44.4937 72.55 53.6588 75.44 60.3525C77 63.9745 78.62 67.7266 78.38 70.8183C77.8 78.2224 80.62 84.0257 86.11 86.7272C88.22 87.7677 90.57 88.268 93.01 88.268C95.45 88.268 98.06 87.7477 100.55 86.7372C93.72 105.347 75.79 118.665 54.8 118.665L54.78 118.675Z" fill="#19124F"/>
<path d="M61.1931 7.27061L51.7767 6.28918C51.7767 6.28918 51.7143 6.28918 51.6786 6.28918C51.5805 6.28918 51.4824 6.28918 51.3932 6.28918C51.313 6.28918 51.2417 6.28918 51.1614 6.30703C51.0722 6.31595 50.9831 6.33379 50.9028 6.36056C50.8226 6.3784 50.7512 6.39625 50.671 6.42302C50.5907 6.44978 50.5105 6.48547 50.4302 6.52116C50.3589 6.55685 50.2875 6.58361 50.2251 6.62822C50.1449 6.67283 50.0735 6.72636 50.0022 6.77097C49.9398 6.81558 49.8773 6.8602 49.8149 6.91373C49.7525 6.96726 49.699 7.02971 49.6366 7.09217C49.5742 7.15462 49.5117 7.226 49.4582 7.29737C49.4404 7.32414 49.4137 7.34199 49.3869 7.37767C49.3601 7.41336 49.3423 7.45797 49.3245 7.49366C49.271 7.57396 49.2264 7.65426 49.1907 7.73456C49.1551 7.80593 49.1194 7.88623 49.0926 7.96653C49.0659 8.04683 49.0391 8.12712 49.0124 8.20742C48.9856 8.29664 48.9678 8.38586 48.9589 8.47508C48.9589 8.51969 48.9321 8.5643 48.9321 8.60891C48.9321 8.6446 48.9321 8.68029 48.9321 8.71598C48.9321 8.79628 48.9321 8.87658 48.9321 8.95687C48.9321 9.0461 48.9321 9.13532 48.95 9.21561C48.9589 9.28699 48.9767 9.35837 48.9856 9.42974C49.0035 9.51896 49.0302 9.60818 49.057 9.68848C49.0837 9.75986 49.1105 9.82231 49.1372 9.89369C49.1729 9.97399 49.2086 10.0543 49.2531 10.1257C49.2888 10.1881 49.3245 10.2595 49.3691 10.3219C49.4226 10.3933 49.4761 10.4647 49.5296 10.5272C49.5742 10.5807 49.6277 10.6431 49.6812 10.6967C49.7525 10.768 49.8328 10.8305 49.913 10.893C49.9487 10.9197 49.9843 10.9554 50.02 10.9822L55.5843 14.899C55.8875 15.1131 56.2263 15.2558 56.5741 15.3272C57.555 15.5235 58.5983 15.1398 59.2135 14.2833C59.6326 13.6945 59.7664 12.9896 59.6416 12.3294L60.667 12.4365C62.0938 12.5881 63.3689 11.5532 63.5205 10.1257C63.6721 8.69814 62.6288 7.43121 61.211 7.27953L61.1931 7.27061Z" fill="#19124F"/>
<path d="M50.3142 79.9228C50.3142 79.8514 50.2429 79.78 50.2429 79.78C42.7079 77.1212 50.5282 59.1879 51.5358 53.4154C54.6033 43.0034 57.2339 32.4932 60.8988 22.2418C58.0096 19.7525 53.6314 15.9607 55.4059 11.7138C56.2173 9.88474 56.9485 7.77022 59.0708 7.18136C64.528 5.35234 67.8363 8.08249 72.17 10.3219C78.6973 7.64531 149.882 -11.5014 121.232 10.3219L92.7952 29.3616C93.7939 30.8961 94.5697 33.0107 96.3888 33.6887C96.3888 33.6887 115.641 40.7372 117.201 42.0576C117.201 42.0576 113.224 49.3023 111.592 52.0325C107.963 56.6898 103.023 63.8363 97.5213 66.1828C97.5213 66.1828 88.1762 46.7328 86.1431 43.5298C85.4297 42.5216 84.0386 42.4859 83.0221 41.8524C83.0221 41.8524 58.6338 78.6737 50.3142 79.9317V79.9228Z" fill="#FE5B71"/>
<path d="M61.3178 15.8178C62.4998 15.8178 63.4579 14.8631 63.4579 13.6855C63.4579 12.5078 62.4998 11.5531 61.3178 11.5531C60.1359 11.5531 59.1777 12.5078 59.1777 13.6855C59.1777 14.8631 60.1359 15.8178 61.3178 15.8178Z" fill="#19124F"/>
</svg>
